<?xml version="1.0" encoding="UTF-8"?>
<!-- Generator: Adobe Illustrator 21.1.0, SVG Export Plug-In . SVG Version: 6.00 Build 0)  -->
<svg width="540" height="98.7" version="1.1" viewBox="0 0 540 98.7" xml:space="preserve" xmlns="http://www.w3.org/2000/svg" xmlns:cc="http://creativecommons.org/ns#" xmlns:dc="http://purl.org/dc/elements/1.1/" xmlns:rdf="http://www.w3.org/1999/02/22-rdf-syntax-ns#">
<title>reg_logo_sm</title>
<path d="m57.6 85v-30.8h-48v-12.3h48v-28.1h-56.2v-12.4h69.9v96h-71.3v-12.4zm142-4.2 44.6-79.4h19.2v96h-13.7v-79.4l-44.6 79.4h-19.2v-96h13.7zm141.2-26.6h-48v-12.3h48v-28.1h-56.2v-12.4h69.9v96h-71.3v-12.4h57.6zm-212.6-41.8h-1.4c-11.7 0-20.4 6.9-21.1 17.8h-13.7c0.7-18.5 14.3-30.2 35.5-30.2 20.7 0 34.3 12.3 34.3 27.4s-8.9 23.9-24.3 27l-15.4 3.2c-10.1 2.1-15.1 6.6-15.1 14.4s7 14.4 19.9 14.4h1.4c14.4 0 24.5-6.9 24.5-19.9h13.7c-0.7 21.2-15.1 32.2-37.7 32.2-21.2 0-35.5-10.4-35.5-27.3 0-15.6 9.6-24.4 26.2-27.7l15.4-3c8.1-1.6 13.2-6 13.2-13.4 0-8.5-8-14.9-19.9-14.9m283.3 0h-1.4c-11.7 0-20.4 6.9-21.1 17.8h-13.7c0.7-18.5 14.3-30.2 35.6-30.2 20.7 0 34.3 12.3 34.3 27.4s-8.9 23.9-24.3 27l-15.4 3.2c-10.1 2.1-15.1 6.6-15.1 14.4s7 14.4 19.9 14.4h1.4c14.4 0 24.5-6.9 24.5-19.9h13.7c-0.7 21.2-15.1 32.2-37.7 32.2-21.2 0-35.5-10.4-35.5-27.3 0-15.6 9.6-24.4 26.2-27.7l15.4-3c8.1-1.6 13.2-6 13.2-13.4-0.1-8.5-8-14.9-20-14.9m90.1 0h-1.4c-11.7 0-20.4 6.9-21.1 17.8h-13.7c0.7-18.5 14.3-30.2 35.5-30.2 20.7 0 34.3 12.4 34.3 27.5s-8.9 23.9-24.3 27l-15.4 3.2c-10.1 2.1-15.1 6.6-15.1 14.4s7.1 14.3 20 14.3h1.4c14.4 0 24.5-6.9 24.5-19.9h13.7c-0.7 21.2-15.1 32.2-37.7 32.2-21.2 0-35.5-10.4-35.5-27.3 0-15.6 9.6-24.4 26.2-27.7l15.4-3c8.1-1.6 13.2-6 13.2-13.4-0.1-8.5-8.1-14.9-20-14.9" fill="#fff"/>
<path d="m8.4615 28.246c528.85 8.4615 495 50.769 495 50.769" fill="#fff"/><metadata><rdf:RDF><cc:Work rdf:about=""><dc:title>reg_logo_sm</dc:title></cc:Work></rdf:RDF></metadata></svg>
